<?xml version="1.0" encoding="UTF-8" standalone="no"?>
<svg
   xmlns:dc="http://purl.org/dc/elements/1.1/"
   xmlns:cc="http://creativecommons.org/ns#"
   xmlns:rdf="http://www.w3.org/1999/02/22-rdf-syntax-ns#"
   xmlns:svg="http://www.w3.org/2000/svg"
   xmlns="http://www.w3.org/2000/svg"
   viewBox="0 0 793.70667 501.33334"
   height="501.33334"
   width="793.70667"
   xml:space="preserve"
   id="svg2"
   version="1.1"><metadata
     id="metadata8"><rdf:RDF><cc:Work
         rdf:about=""><dc:format>image/svg+xml</dc:format><dc:type
           rdf:resource="http://purl.org/dc/dcmitype/StillImage" /></cc:Work></rdf:RDF></metadata><defs
     id="defs6"><clipPath
       id="clipPath18"
       clipPathUnits="userSpaceOnUse"><path
         id="path16"
         d="M 0,376 H 595.28 V 0 H 0 Z" /></clipPath></defs><g
     transform="matrix(1.3333333,0,0,-1.3333333,0,501.33333)"
     id="g10"><g
       id="g12"><g
         clip-path="url(#clipPath18)"
         id="g14"><g
           transform="translate(163.0479,50.0566)"
           id="g20"><path
             id="path22"
             style="fill:#ff7700;fill-opacity:1;fill-rule:nonzero;stroke:none"
             d="M 0,0 C -20.467,0 -37.06,16.593 -37.06,37.061 -37.06,57.527 -20.467,74.12 0,74.12 20.468,74.12 37.06,57.527 37.06,37.061 37.06,16.593 20.468,0 0,0 m 0,115.474 c -43.306,0 -78.413,-35.108 -78.413,-78.413 0,-43.307 35.107,-78.414 78.413,-78.414 43.307,0 78.414,35.107 78.414,78.414 0,43.305 -35.107,78.413 -78.414,78.413" /></g><g
           transform="translate(466.2471,230.7285)"
           id="g24"><path
             id="path26"
             style="fill:#ff7700;fill-opacity:1;fill-rule:nonzero;stroke:none"
             d="m 0,0 h -74.084 c -9.729,0 -9.729,14.338 -9.729,14.338 v 59.867 c 0,17.96 9.729,15.714 9.729,15.714 0,0 4.49,5.239 35.92,-5.986 C -6.734,72.708 14.219,35.292 16.464,16.583 18.709,-2.125 0,0 0,0 M -123.474,21.073 C -124.97,-2.873 -138.44,0.12 -138.44,0.12 h -130.957 c 0,0 -29.038,3.109 -2.245,36.668 46.856,58.69 77.078,58.69 117.488,57.621 0.258,-0.007 0.516,-0.014 0.772,-0.023 16.867,-0.573 30.175,-14.542 30.447,-31.417 0.208,-12.966 0.24,-29.452 -0.539,-41.896 m 205.79,-57.027 c 0,0 2.994,8.98 -9.728,45.648 -12.722,36.668 -55.376,79.323 -55.376,79.323 0,0 -41.158,37.416 -147.42,41.158 -106.263,3.741 -166.129,-61.363 -197.559,-102.521 -31.429,-41.158 -38.913,-23.946 -77.077,-41.906 -38.165,-17.961 -43.403,-53.132 -43.403,-92.793 0,-39.661 36.668,-52.383 36.668,-52.383 h 16.024 c -0.877,5.153 -1.434,10.414 -1.434,15.817 0,51.798 41.991,93.79 93.79,93.79 51.799,0 93.79,-41.992 93.79,-93.79 0,-5.403 -0.558,-10.664 -1.434,-15.817 h 72.403 36.978 c -0.877,5.153 -1.435,10.414 -1.435,15.817 0,51.798 41.992,93.79 93.791,93.79 51.798,0 93.79,-41.992 93.79,-93.79 0,-4.919 -0.493,-9.711 -1.222,-14.426 6.4,4.975 27.291,24.062 27.291,61.469 0,44.151 -28.437,60.614 -28.437,60.614" /></g><g
           transform="translate(457.1406,50.0576)"
           id="g28"><path
             id="path30"
             style="fill:#ff7700;fill-opacity:1;fill-rule:nonzero;stroke:none"
             d="m 0,0 c -20.468,0 -37.061,16.592 -37.061,37.06 0,20.467 16.593,37.059 37.061,37.059 20.468,0 37.06,-16.592 37.06,-37.059 C 37.06,16.592 20.468,0 0,0 m 0,115.473 c -43.307,0 -78.413,-35.108 -78.413,-78.413 0,-43.307 35.106,-78.414 78.413,-78.414 43.306,0 78.413,35.107 78.413,78.414 0,43.305 -35.107,78.413 -78.413,78.413" /></g></g></g></g></svg>