<svg id="Layer_3" enable-background="new 0 0 64 64" height="24px" viewBox="0 0 64 64" width="24px" xmlns="http://www.w3.org/2000/svg"><g><path d="m39 34v-4c0-.553-.448-1-1-1h-12v-3c0-.553-.448-1-1-1h-1v-2h10c.552 0 1-.447 1-1v-20c0-.553-.448-1-1-1h-28c-.552 0-1 .447-1 1v20c0 .553.448 1 1 1h10v2h-1c-.552 0-1 .447-1 1v3h-12c-.552 0-1 .447-1 1v4c0 .553.448 1 1 1h36c.552 0 1-.447 1-1zm-32-31h26v18h-26zm11 20h4v2h-4zm-2 4h8v2h-8zm21 6h-34v-2h34z"/><path d="m26 9c-2.757 0-5 2.243-5 5s2.243 5 5 5 5-2.243 5-5-2.243-5-5-5zm0 8c-1.654 0-3-1.346-3-3s1.346-3 3-3 3 1.346 3 3-1.346 3-3 3z"/><path d="m18 5h-8c-.552 0-1 .447-1 1v12c0 .553.448 1 1 1h8c.552 0 1-.447 1-1v-12c0-.553-.448-1-1-1zm-1 12h-6v-10h6z"/><path d="m21 5h10v2h-10z"/><path d="m58 49h-1.62l-4.231-3.761c-3.075-2.733-7.034-4.239-11.149-4.239s-8.074 1.506-11.149 4.239l-4.28 3.804c-2.553.222-4.571 2.347-4.571 4.957v4c0 .553.448 1 1 1h3.101c.465 2.279 2.484 4 4.899 4s4.434-1.721 4.899-4h12.202c.465 2.279 2.484 4 4.899 4s4.434-1.721 4.899-4h5.101c.552 0 1-.447 1-1v-4c0-2.757-2.243-5-5-5zm-4.63 0h-11.37v-5.954c3.261.221 6.362 1.503 8.82 3.688zm-22.19-2.267c2.458-2.185 5.559-3.467 8.82-3.688v5.955h-11.37zm-1.18 14.267c-1.654 0-3-1.346-3-3s1.346-3 3-3 3 1.346 3 3-1.346 3-3 3zm22 0c-1.654 0-3-1.346-3-3s1.346-3 3-3 3 1.346 3 3-1.346 3-3 3zm9-4h-4.101c-.465-2.279-2.484-4-4.899-4s-4.434 1.721-4.899 4h-12.202c-.465-2.279-2.484-4-4.899-4s-4.434 1.721-4.899 4h-2.101v-3c0-1.654 1.346-3 3-3h32c1.654 0 3 1.346 3 3z"/><path d="m5 57h14v2h-14z"/><path d="m11 53h8v2h-8z"/><path d="m7 53h2v2h-2z"/><path d="m38.293 15.293 1.414 1.414.586-.586c1.085-1.085 1.707-2.587 1.707-4.121s-.622-3.036-1.707-4.121l-.586-.586-1.414 1.414.586.586c.712.713 1.121 1.699 1.121 2.707s-.409 1.994-1.121 2.707z"/><path d="m44 12c0 2.312-.9 4.486-2.537 6.122l-.171.172 1.416 1.412.17-.171c2.014-2.013 3.122-4.688 3.122-7.535s-1.108-5.522-3.121-7.534l-.171-.172-1.416 1.412.172.173c1.636 1.635 2.536 3.809 2.536 6.121z"/></g></svg>